
<svg id="mi-svg" enable-background="new 0 0 513.002 513.002" height="512" viewBox="0 0 513.002 513.002" width="512" xmlns="http://www.w3.org/2000/svg">
    <defs>
    <linearGradient id="grad" x1="0%" y1="0%" x2="100%" y2="100%">
      <stop offset="0%" stop-color="#fe8a39" />
      <stop offset="74%" stop-color="#fd3838" />
    </linearGradient>
  </defs>
  <g>
<path d="m194.499.002c.144-.003-.143-.003 0 0z" fill="url(#grad)"/>
<path d="m243.499 200.002c11.046 0 20-8.954 20-20 0-7.313-3.938-13.69-9.796-17.178-6.65-4.597-30.694-19.636-60.868-19.82-.088-.001-.175-.002-.263-.002h-.293c-.088 0-.175.001-.263.002-33.58.204-59.582 18.815-62.45 20.947-8.864 6.591-10.708 19.119-4.118 27.983 3.926 5.28 9.957 8.069 16.066 8.068 4.147 0 8.333-1.286 11.917-3.95.115-.086 7.849-5.649 19.067-9.484v106.433c0 11.046 8.954 20 20 20s20-8.954 20-20v-106.36c11.159 3.852 18.891 9.389 19.008 9.475l-.087-.063.065-.088c3.349 2.524 7.501 4.037 12.015 4.037z" fill="url(#grad)"/>
<path d="m330.906 51.12c-35.626-32.664-84.617-50.792-136.407-51.118-51.789.326-100.78 18.454-136.406 51.118-37.139 34.053-57.594 81.245-57.594 132.882 0 53.582 22.859 109.457 66.108 161.583 32.016 38.588 63.87 61.687 65.211 62.651 3.402 2.448 7.488 3.766 11.681 3.766h101c11.046 0 20-8.954 20-20s-8.954-20-20-20h-94.199c-21.924-17.453-109.801-93.34-109.801-188 0-81.864 66.288-143.655 154-144 87.71.346 154 62.137 154 144 0 16.092-2.588 32.605-7.691 49.082-3.269 10.552 2.636 21.754 13.187 25.022 10.545 3.267 21.755-2.635 25.022-13.187 6.292-20.314 9.482-40.81 9.482-60.918 0-51.636-20.454-98.828-57.593-132.881z" fill="url(#grad)"/>
<path d="m502.789 426.852-13.324-7.994c2.611-8.158 4.034-16.842 4.034-25.855 0-9.014-1.422-17.698-4.034-25.856l13.324-7.995c9.472-5.683 12.543-17.968 6.859-27.439-5.684-9.473-17.971-12.545-27.439-6.859l-13.569 8.142c-10.876-10.901-24.695-18.853-40.141-22.593v-17.399c0-11.046-8.954-20-20-20s-20 8.954-20 20v17.399c-15.798 3.826-29.881 12.071-40.869 23.356l-14.841-8.905c-9.469-5.684-21.755-2.612-27.439 6.859-5.684 9.472-2.612 21.757 6.859 27.439l15.004 9.002c-2.409 7.864-3.714 16.206-3.714 24.848s1.305 16.984 3.714 24.848l-15.004 9.002c-9.472 5.684-12.543 17.969-6.86 27.44 3.751 6.25 10.375 9.713 17.169 9.713 3.502 0 7.05-.92 10.271-2.853l14.842-8.905c10.988 11.286 25.07 19.53 40.868 23.356v17.399c0 11.046 8.954 20 20 20s20-8.954 20-20v-17.399c15.445-3.741 29.263-11.692 40.14-22.592l13.57 8.142c3.222 1.933 6.769 2.853 10.271 2.853 6.794 0 13.419-3.463 17.169-9.713 5.683-9.472 2.612-21.758-6.86-27.441zm-94.29 11.15c-24.813 0-45-20.187-45-45s20.187-45 45-45 45 20.187 45 45-20.186 45-45 45z " fill="url(#grad)"/>
<path d="m250.639 441.968c-10.516-3.391-21.783 2.383-25.174 12.895l-5.529 17.14h-51.873l-5.529-17.14c-3.391-10.514-14.664-16.288-25.174-12.895-10.513 3.391-16.285 14.662-12.895 25.174l10 31c2.665 8.262 10.354 13.86 19.034 13.86h81c8.68 0 16.369-5.599 19.034-13.86l10-31c3.391-10.512-2.381-21.783-12.894-25.174z" fill="url(#grad)"/>
</g></svg>